<?xml version="1.0" encoding="UTF-8" standalone="no"?>
<svg
   xmlns:dc="http://purl.org/dc/elements/1.1/"
   xmlns:cc="http://creativecommons.org/ns#"
   xmlns:rdf="http://www.w3.org/1999/02/22-rdf-syntax-ns#"
   xmlns:svg="http://www.w3.org/2000/svg"
   xmlns="http://www.w3.org/2000/svg"
   xmlns:sodipodi="http://sodipodi.sourceforge.net/DTD/sodipodi-0.dtd"
   xmlns:inkscape="http://www.inkscape.org/namespaces/inkscape"
   version="1.2"
   x="0in"
   y="0in"
   width="90.124992"
   height="193.48326"
   viewBox="0 0 67.594039 145.11229"
   id="svg1768"
   sodipodi:docname="ESP32_Nodemcu_32s_pcb.svg"
   inkscape:version="1.0.1 (3bc2e813f5, 2020-09-07)">
  <metadata
     id="metadata1774">
    <rdf:RDF>
      <cc:Work
         rdf:about="">
        <dc:format>image/svg+xml</dc:format>
        <dc:type
           rdf:resource="http://purl.org/dc/dcmitype/StillImage" />
        <dc:title />
      </cc:Work>
    </rdf:RDF>
  </metadata>
  <defs
     id="defs1772" />
  <sodipodi:namedview
     pagecolor="#ffffff"
     bordercolor="#666666"
     borderopacity="1"
     objecttolerance="10"
     gridtolerance="10"
     guidetolerance="10"
     inkscape:pageopacity="0"
     inkscape:pageshadow="2"
     inkscape:window-width="1920"
     inkscape:window-height="1027"
     id="namedview1770"
     showgrid="false"
     inkscape:zoom="2.7715627"
     inkscape:cx="84.485923"
     inkscape:cy="132.19045"
     inkscape:window-x="1912"
     inkscape:window-y="-8"
     inkscape:window-maximized="1"
     inkscape:current-layer="svg1768"
     inkscape:document-rotation="0"
     units="px">
    <inkscape:grid
       type="xygrid"
       id="grid1928" />
  </sodipodi:namedview>
  <g
     id="g5078"
     transform="matrix(2.6574918,0,0,2.6574918,120.0466,15.777794)" />
  <g
     id="silkscreen">
    <rect
       gorn="0.1.0.0.0.4.0.0.0.41"
       fill-opacity="0.941176"
       fill="#000000"
       stroke="none"
       style="fill:none;fill-rule:nonzero;stroke:#000000;stroke-width:0.750003;stroke-miterlimit:4;stroke-dasharray:none"
       width="15.944952"
       height="47.834858"
       id="rect4342-4"
       x="-15.728333"
       y="9.8795662"
       transform="rotate(-90)" />
    <path
       gorn="0.1.0.0.0.4.0.0.0.0.0.0.0"
       fill-opacity="0.941176"
       fill="#000000"
       stroke="none"
       style="fill:none;fill-rule:nonzero;stroke:#000000;stroke-width:0.750003"
       d="m 0.04687,145.32891 h 67.5003 V 15.718963 H 0.04687 Z m 1.96876,-3.42189 c 0,-0.74559 0.6138,-1.35938 1.35938,-1.35938 0.74559,0 1.35938,0.61379 1.35938,1.35938 0,0.74559 -0.61379,1.35938 -1.35938,1.35938 -0.74558,0 -1.35938,-0.61379 -1.35938,-1.35938 z m 0,-6.75003 c 0,-0.74559 0.6138,-1.35938 1.35938,-1.35938 0.74559,0 1.35938,0.61379 1.35938,1.35938 0,0.74559 -0.61379,1.35939 -1.35938,1.35939 -0.74558,0 -1.35938,-0.6138 -1.35938,-1.35939 z m 0,-6.75003 c 0,-0.74559 0.6138,-1.35938 1.35938,-1.35938 0.74559,0 1.35938,0.61379 1.35938,1.35938 0,0.74559 -0.61379,1.35939 -1.35938,1.35939 -0.74558,0 -1.35938,-0.6138 -1.35938,-1.35939 z m 0,-6.75003 c 0,-0.74559 0.6138,-1.35938 1.35938,-1.35938 0.74559,0 1.35938,0.61379 1.35938,1.35938 0,0.74559 -0.61379,1.35938 -1.35938,1.35938 -0.74558,0 -1.35938,-0.61379 -1.35938,-1.35938 z m 0,-6.75003 c 0,-0.74559 0.6138,-1.35938 1.35938,-1.35938 0.74559,0 1.35938,0.61379 1.35938,1.35938 0,0.74559 -0.61379,1.35938 -1.35938,1.35938 -0.74558,0 -1.35938,-0.61379 -1.35938,-1.35938 z m 0,-6.75003 c 0,-0.74558 0.6138,-1.35938 1.35938,-1.35938 0.74559,0 1.35938,0.6138 1.35938,1.35938 0,0.74559 -0.61379,1.35938 -1.35938,1.35938 -0.74558,0 -1.35938,-0.61379 -1.35938,-1.35938 z m 0,-6.75003 c 0,-0.74558 0.6138,-1.35938 1.35938,-1.35938 0.74559,0 1.35938,0.6138 1.35938,1.35938 0,0.74559 -0.61379,1.35938 -1.35938,1.35938 -0.74558,0 -1.35938,-0.61379 -1.35938,-1.35938 z m 0,-6.750029 c 0,-0.74559 0.6138,-1.35938 1.35938,-1.35938 0.74559,0 1.35938,0.61379 1.35938,1.35938 0,0.74559 -0.61379,1.35938 -1.35938,1.35938 -0.74558,0 -1.35938,-0.61379 -1.35938,-1.35938 z m 0,-6.750032 c 0,-0.74559 0.6138,-1.35938 1.35938,-1.35938 0.74559,0 1.35938,0.61379 1.35938,1.35938 0,0.74559 -0.61379,1.35938 -1.35938,1.35938 -0.74558,0 -1.35938,-0.61379 -1.35938,-1.35938 z m 0,-6.75003 c 0,-0.74559 0.6138,-1.35938 1.35938,-1.35938 0.74559,0 1.35938,0.61379 1.35938,1.35938 0,0.74559 -0.61379,1.35938 -1.35938,1.35938 -0.74558,0 -1.35938,-0.61379 -1.35938,-1.35938 z m 0,-6.75003 c 0,-0.74559 0.6138,-1.35938 1.35938,-1.35938 0.74559,0 1.35938,0.61379 1.35938,1.35938 0,0.74559 -0.61379,1.35938 -1.35938,1.35938 -0.74558,0 -1.35938,-0.61379 -1.35938,-1.35938 z m 0,-6.75003 c 0,-0.74558 0.6138,-1.35938 1.35938,-1.35938 0.74559,0 1.35938,0.6138 1.35938,1.35938 0,0.74559 -0.61379,1.35938 -1.35938,1.35938 -0.74558,0 -1.35938,-0.61379 -1.35938,-1.35938 z m 0,-6.75003 c 0,-0.74558 0.6138,-1.35938 1.35938,-1.35938 0.74559,0 1.35938,0.6138 1.35938,1.35938 0,0.74559 -0.61379,1.35938 -1.35938,1.35938 -0.74558,0 -1.35938,-0.61379 -1.35938,-1.35938 z m 0,-6.75003 c 0,-0.74558 0.6138,-1.35938 1.35938,-1.35938 0.74559,0 1.35938,0.6138 1.35938,1.35938 0,0.74559 -0.61379,1.35938 -1.35938,1.35938 -0.74558,0 -1.35938,-0.61379 -1.35938,-1.35938 z m 0,-6.750026 c 0,-0.745586 0.6138,-1.359382 1.35938,-1.359382 0.74559,0 1.35938,0.613796 1.35938,1.359382 0,0.745586 -0.61379,1.359386 -1.35938,1.359386 -0.74558,0 -1.35938,-0.6138 -1.35938,-1.359386 z m 0,-6.75003 c 0,-0.745585 0.6138,-1.35938 1.35938,-1.35938 0.74559,0 1.35938,0.613795 1.35938,1.35938 0,0.745587 -0.61379,1.35938 -1.35938,1.35938 -0.74558,0 -1.35938,-0.613793 -1.35938,-1.35938 z m 0,-6.750031 c 0,-0.745584 0.6138,-1.359379 1.35938,-1.359379 0.74559,0 1.35938,0.613795 1.35938,1.359379 0,0.745586 -0.61379,1.359381 -1.35938,1.359381 -0.74558,0 -1.35938,-0.613795 -1.35938,-1.359381 z m 0,-6.75003 c 0,-0.745584 0.6138,-1.35938 1.35938,-1.35938 0.74559,0 1.35938,0.613796 1.35938,1.35938 0,0.745587 -0.61379,1.359382 -1.35938,1.359382 -0.74558,0 -1.35938,-0.613795 -1.35938,-1.359382 z m 0,-6.750028 c 0,-0.745586 0.6138,-1.359381 1.35938,-1.359381 0.74559,0 1.35938,0.613795 1.35938,1.359381 0,0.745585 -0.61379,1.359381 -1.35938,1.359381 -0.74558,0 -1.35938,-0.613796 -1.35938,-1.359381 z M 62.7659,141.90702 c 0,-0.74559 0.61379,-1.35938 1.35938,-1.35938 0.74559,0 1.35938,0.61379 1.35938,1.35938 0,0.74559 -0.61379,1.35938 -1.35938,1.35938 -0.74559,0 -1.35938,-0.61379 -1.35938,-1.35938 z m 0,-6.75003 c 0,-0.74559 0.61379,-1.35938 1.35938,-1.35938 0.74559,0 1.35938,0.61379 1.35938,1.35938 0,0.74559 -0.61379,1.35939 -1.35938,1.35939 -0.74559,0 -1.35938,-0.6138 -1.35938,-1.35939 z m 0,-6.75003 c 0,-0.74559 0.61379,-1.35938 1.35938,-1.35938 0.74559,0 1.35938,0.61379 1.35938,1.35938 0,0.74559 -0.61379,1.35939 -1.35938,1.35939 -0.74559,0 -1.35938,-0.6138 -1.35938,-1.35939 z m 0,-6.75003 c 0,-0.74559 0.61379,-1.35938 1.35938,-1.35938 0.74559,0 1.35938,0.61379 1.35938,1.35938 0,0.74559 -0.61379,1.35938 -1.35938,1.35938 -0.74559,0 -1.35938,-0.61379 -1.35938,-1.35938 z m 0,-6.75003 c 0,-0.74559 0.61379,-1.35938 1.35938,-1.35938 0.74559,0 1.35938,0.61379 1.35938,1.35938 0,0.74559 -0.61379,1.35938 -1.35938,1.35938 -0.74559,0 -1.35938,-0.61379 -1.35938,-1.35938 z m 0,-6.75003 c 0,-0.74558 0.61379,-1.35938 1.35938,-1.35938 0.74559,0 1.35938,0.6138 1.35938,1.35938 0,0.74559 -0.61379,1.35938 -1.35938,1.35938 -0.74559,0 -1.35938,-0.61379 -1.35938,-1.35938 z m 0,-6.75003 c 0,-0.74558 0.61379,-1.35938 1.35938,-1.35938 0.74559,0 1.35938,0.6138 1.35938,1.35938 0,0.74559 -0.61379,1.35938 -1.35938,1.35938 -0.74559,0 -1.35938,-0.61379 -1.35938,-1.35938 z m 0,-6.750029 c 0,-0.74559 0.61379,-1.35938 1.35938,-1.35938 0.74559,0 1.35938,0.61379 1.35938,1.35938 0,0.74559 -0.61379,1.35938 -1.35938,1.35938 -0.74559,0 -1.35938,-0.61379 -1.35938,-1.35938 z m 0,-6.750032 c 0,-0.74559 0.61379,-1.35938 1.35938,-1.35938 0.74559,0 1.35938,0.61379 1.35938,1.35938 0,0.74559 -0.61379,1.35938 -1.35938,1.35938 -0.74559,0 -1.35938,-0.61379 -1.35938,-1.35938 z m 0,-6.75003 c 0,-0.74559 0.61379,-1.35938 1.35938,-1.35938 0.74559,0 1.35938,0.61379 1.35938,1.35938 0,0.74559 -0.61379,1.35938 -1.35938,1.35938 -0.74559,0 -1.35938,-0.61379 -1.35938,-1.35938 z m 0,-6.75003 c 0,-0.74559 0.61379,-1.35938 1.35938,-1.35938 0.74559,0 1.35938,0.61379 1.35938,1.35938 0,0.74559 -0.61379,1.35938 -1.35938,1.35938 -0.74559,0 -1.35938,-0.61379 -1.35938,-1.35938 z m 0,-6.75003 c 0,-0.74558 0.61379,-1.35938 1.35938,-1.35938 0.74559,0 1.35938,0.6138 1.35938,1.35938 0,0.74559 -0.61379,1.35938 -1.35938,1.35938 -0.74559,0 -1.35938,-0.61379 -1.35938,-1.35938 z m 0,-6.75003 c 0,-0.74558 0.61379,-1.35938 1.35938,-1.35938 0.74559,0 1.35938,0.6138 1.35938,1.35938 0,0.74559 -0.61379,1.35938 -1.35938,1.35938 -0.74559,0 -1.35938,-0.61379 -1.35938,-1.35938 z m 0,-6.75003 c 0,-0.74558 0.61379,-1.35938 1.35938,-1.35938 0.74559,0 1.35938,0.6138 1.35938,1.35938 0,0.74559 -0.61379,1.35938 -1.35938,1.35938 -0.74559,0 -1.35938,-0.61379 -1.35938,-1.35938 z m 0,-6.750026 c 0,-0.745586 0.61379,-1.359382 1.35938,-1.359382 0.74559,0 1.35938,0.613796 1.35938,1.359382 0,0.745586 -0.61379,1.359386 -1.35938,1.359386 -0.74559,0 -1.35938,-0.6138 -1.35938,-1.359386 z m 0,-6.75003 c 0,-0.745585 0.61379,-1.35938 1.35938,-1.35938 0.74559,0 1.35938,0.613795 1.35938,1.35938 0,0.745587 -0.61379,1.35938 -1.35938,1.35938 -0.74559,0 -1.35938,-0.613793 -1.35938,-1.35938 z m 0,-6.750031 c 0,-0.745584 0.61379,-1.359379 1.35938,-1.359379 0.74559,0 1.35938,0.613795 1.35938,1.359379 0,0.745586 -0.61379,1.359381 -1.35938,1.359381 -0.74559,0 -1.35938,-0.613795 -1.35938,-1.359381 z m 0,-6.75003 c 0,-0.745584 0.61379,-1.35938 1.35938,-1.35938 0.74559,0 1.35938,0.613796 1.35938,1.35938 0,0.745587 -0.61379,1.359382 -1.35938,1.359382 -0.74559,0 -1.35938,-0.613795 -1.35938,-1.359382 z m 0,-6.750028 c 0,-0.745586 0.61379,-1.359381 1.35938,-1.359381 0.74559,0 1.35938,0.613795 1.35938,1.359381 0,0.745585 -0.61379,1.359381 -1.35938,1.359381 -0.74559,0 -1.35938,-0.613796 -1.35938,-1.359381 z"
       id="rect3570" />
  </g>
  <g
     id="copper1">
    <circle
       cx="-141.88586"
       cy="64.104111"
       stroke-opacity="1"
       gorn="0.1.0.0.0.4.0.0.0.42.0.0.0"
       stroke-width="1.06299"
       r="1.9665439"
       fill="none"
       stroke="#9a916c"
       id="connector19pin"
       transform="rotate(-90)"
       style="stroke:#ffbf00;stroke-opacity:1" />
    <circle
       cx="-135.13583"
       cy="64.104111"
       stroke-opacity="1"
       gorn="0.1.0.0.0.4.0.0.0.43.0.0.0"
       stroke-width="1.06299"
       r="1.9665439"
       fill="none"
       stroke="#9a916c"
       id="connector20pin"
       transform="rotate(-90)"
       style="stroke:#ffbf00;stroke-opacity:1" />
    <circle
       cx="-128.3858"
       cy="64.104111"
       stroke-opacity="1"
       gorn="0.1.0.0.0.4.0.0.0.44.0.0.0"
       stroke-width="1.06299"
       r="1.9665439"
       fill="none"
       stroke="#9a916c"
       id="connector21pin"
       transform="rotate(-90)"
       style="stroke:#ffbf00;stroke-opacity:1" />
    <circle
       cx="-121.63577"
       cy="64.104111"
       stroke-opacity="1"
       gorn="0.1.0.0.0.4.0.0.0.45.0.0.0"
       stroke-width="1.06299"
       r="1.9665439"
       fill="none"
       stroke="#9a916c"
       id="connector22pin"
       transform="rotate(-90)"
       style="stroke:#ffbf00;stroke-opacity:1" />
    <circle
       cx="-114.88575"
       cy="64.104111"
       stroke-opacity="1"
       gorn="0.1.0.0.0.4.0.0.0.46.0.0.0"
       stroke-width="1.06299"
       r="1.9665439"
       fill="none"
       stroke="#9a916c"
       id="connector23pin"
       transform="rotate(-90)"
       style="stroke:#ffbf00;stroke-opacity:1" />
    <circle
       cx="-108.13572"
       cy="64.104111"
       stroke-opacity="1"
       gorn="0.1.0.0.0.4.0.0.0.47.0.0.0"
       stroke-width="1.06299"
       r="1.9665439"
       fill="none"
       stroke="#9a916c"
       id="connector24pin"
       transform="rotate(-90)"
       style="stroke:#ffbf00;stroke-opacity:1" />
    <circle
       cx="-101.38566"
       cy="64.104111"
       stroke-opacity="1"
       gorn="0.1.0.0.0.4.0.0.0.48.0.0.0"
       stroke-width="1.06299"
       r="1.9665439"
       fill="none"
       stroke="#9a916c"
       id="connector25pin"
       transform="rotate(-90)"
       style="stroke:#ffbf00;stroke-opacity:1" />
    <circle
       cx="-94.635658"
       cy="64.104111"
       stroke-opacity="1"
       gorn="0.1.0.0.0.4.0.0.0.49.0.0.0"
       stroke-width="1.06299"
       r="1.9665439"
       fill="none"
       stroke="#9a916c"
       id="connector26pin"
       transform="rotate(-90)"
       style="stroke:#ffbf00;stroke-opacity:1" />
    <circle
       cx="-87.885628"
       cy="64.104111"
       stroke-opacity="1"
       gorn="0.1.0.0.0.4.0.0.0.50.0.0.0"
       stroke-width="1.06299"
       r="1.9665439"
       fill="none"
       stroke="#9a916c"
       id="connector27pin"
       transform="rotate(-90)"
       style="stroke:#ffbf00;stroke-opacity:1" />
    <circle
       cx="-81.135597"
       cy="64.104111"
       stroke-opacity="1"
       gorn="0.1.0.0.0.4.0.0.0.51.0.0.0"
       stroke-width="1.06299"
       r="1.9665439"
       fill="none"
       stroke="#9a916c"
       id="connector28pin"
       transform="rotate(-90)"
       style="stroke:#ffbf00;stroke-opacity:1" />
    <circle
       cx="-74.385567"
       cy="64.104111"
       stroke-opacity="1"
       gorn="0.1.0.0.0.4.0.0.0.52.0.0.0"
       stroke-width="1.06299"
       r="1.9665439"
       fill="none"
       stroke="#9a916c"
       id="connector29pin"
       transform="rotate(-90)"
       style="stroke:#ffbf00;stroke-opacity:1" />
    <circle
       cx="-67.635529"
       cy="64.104111"
       stroke-opacity="1"
       gorn="0.1.0.0.0.4.0.0.0.53.0.0.0"
       stroke-width="1.06299"
       r="1.9665439"
       fill="none"
       stroke="#9a916c"
       id="connector30pin"
       transform="rotate(-90)"
       style="stroke:#ffbf00;stroke-opacity:1" />
    <circle
       cx="-60.885513"
       cy="64.104111"
       stroke-opacity="1"
       gorn="0.1.0.0.0.4.0.0.0.54.0.0.0"
       stroke-width="1.06299"
       r="1.9665439"
       fill="none"
       stroke="#9a916c"
       id="connector31pin"
       transform="rotate(-90)"
       style="stroke:#ffbf00;stroke-opacity:1" />
    <circle
       cx="-54.135479"
       cy="64.104111"
       stroke-opacity="1"
       gorn="0.1.0.0.0.4.0.0.0.55.0.0.0"
       stroke-width="1.06299"
       r="1.9665439"
       fill="none"
       stroke="#9a916c"
       id="connector32pin"
       transform="rotate(-90)"
       style="stroke:#ffbf00;stroke-opacity:1" />
    <circle
       cx="-47.385441"
       cy="64.104111"
       stroke-opacity="1"
       gorn="0.1.0.0.0.4.0.0.0.56.0.0.0"
       stroke-width="1.06299"
       r="1.9665439"
       fill="none"
       stroke="#9a916c"
       id="connector33pin"
       transform="rotate(-90)"
       style="stroke:#ffbf00;stroke-opacity:1" />
    <circle
       cx="-40.63541"
       cy="64.104111"
       stroke-opacity="1"
       gorn="0.1.0.0.0.4.0.0.0.57.0.0.0"
       stroke-width="1.06299"
       r="1.9665439"
       fill="none"
       stroke="#9a916c"
       id="connector34pin"
       transform="rotate(-90)"
       style="stroke:#ffbf00;stroke-opacity:1" />
    <circle
       cx="-33.885391"
       cy="64.104111"
       stroke-opacity="1"
       gorn="0.1.0.0.0.4.0.0.0.58.0.0.0"
       stroke-width="1.06299"
       r="1.9665439"
       fill="none"
       stroke="#9a916c"
       id="connector35pin"
       transform="rotate(-90)"
       style="stroke:#ffbf00;stroke-opacity:1" />
    <circle
       cx="-27.135363"
       cy="64.104111"
       stroke-opacity="1"
       gorn="0.1.0.0.0.4.0.0.0.59.0.0.0"
       stroke-width="1.06299"
       r="1.9665439"
       fill="none"
       stroke="#9a916c"
       id="connector36pin"
       transform="rotate(-90)"
       style="stroke:#ffbf00;stroke-opacity:1" />
    <circle
       cx="-20.385332"
       cy="64.104111"
       stroke-opacity="1"
       gorn="0.1.0.0.0.4.0.0.0.60.0.0.0"
       stroke-width="1.06299"
       r="1.9665439"
       fill="none"
       stroke="#9a916c"
       id="connector37pin"
       transform="rotate(-90)"
       style="stroke:#ffbf00;stroke-opacity:1" />
    <circle
       cx="-141.88586"
       cy="3.353848"
       stroke-opacity="1"
       gorn="0.1.0.0.0.4.0.0.0.61.0.0.0"
       stroke-width="1.06299"
       r="1.9665439"
       fill="none"
       stroke="#9a916c"
       id="connector18pin"
       transform="rotate(-90)"
       style="stroke:#ffbf00;stroke-opacity:1" />
    <circle
       cx="-135.13583"
       cy="3.353848"
       stroke-opacity="1"
       gorn="0.1.0.0.0.4.0.0.0.62.0.0.0"
       stroke-width="1.06299"
       r="1.9665439"
       fill="none"
       stroke="#9a916c"
       id="connector17pin"
       transform="rotate(-90)"
       style="stroke:#ffbf00;stroke-opacity:1" />
    <circle
       cx="-128.3858"
       cy="3.353848"
       stroke-opacity="1"
       gorn="0.1.0.0.0.4.0.0.0.63.0.0.0"
       stroke-width="1.06299"
       r="1.9665439"
       fill="none"
       stroke="#9a916c"
       id="connector16pin"
       transform="rotate(-90)"
       style="stroke:#ffbf00;stroke-opacity:1" />
    <circle
       cx="-121.63577"
       cy="3.353848"
       stroke-opacity="1"
       gorn="0.1.0.0.0.4.0.0.0.64.0.0.0"
       stroke-width="1.06299"
       r="1.9665439"
       fill="none"
       stroke="#9a916c"
       id="connector15pin"
       transform="rotate(-90)"
       style="stroke:#ffbf00;stroke-opacity:1" />
    <circle
       cx="-114.88575"
       cy="3.353848"
       stroke-opacity="1"
       gorn="0.1.0.0.0.4.0.0.0.65.0.0.0"
       stroke-width="1.06299"
       r="1.9665439"
       fill="none"
       stroke="#9a916c"
       id="connector14pin"
       transform="rotate(-90)"
       style="stroke:#ffbf00;stroke-opacity:1" />
    <circle
       cx="-108.13572"
       cy="3.353848"
       stroke-opacity="1"
       gorn="0.1.0.0.0.4.0.0.0.66.0.0.0"
       stroke-width="1.06299"
       r="1.9665439"
       fill="none"
       stroke="#9a916c"
       id="connector13pin"
       transform="rotate(-90)"
       style="stroke:#ffbf00;stroke-opacity:1" />
    <circle
       cx="-101.38566"
       cy="3.353848"
       stroke-opacity="1"
       gorn="0.1.0.0.0.4.0.0.0.67.0.0.0"
       stroke-width="1.06299"
       r="1.9665439"
       fill="none"
       stroke="#9a916c"
       id="connector12pin"
       transform="rotate(-90)"
       style="stroke:#ffbf00;stroke-opacity:1" />
    <circle
       cx="-94.635658"
       cy="3.353848"
       stroke-opacity="1"
       gorn="0.1.0.0.0.4.0.0.0.68.0.0.0"
       stroke-width="1.06299"
       r="1.9665439"
       fill="none"
       stroke="#9a916c"
       id="connector11pin"
       transform="rotate(-90)"
       style="stroke:#ffbf00;stroke-opacity:1" />
    <circle
       cx="-87.885628"
       cy="3.353848"
       stroke-opacity="1"
       gorn="0.1.0.0.0.4.0.0.0.69.0.0.0"
       stroke-width="1.06299"
       r="1.9665439"
       fill="none"
       stroke="#9a916c"
       id="connector10pin"
       transform="rotate(-90)"
       style="stroke:#ffbf00;stroke-opacity:1" />
    <circle
       cx="-81.135597"
       cy="3.353848"
       stroke-opacity="1"
       gorn="0.1.0.0.0.4.0.0.0.70.0.0.0"
       stroke-width="1.06299"
       r="1.9665439"
       fill="none"
       stroke="#9a916c"
       id="connector9pin"
       transform="rotate(-90)"
       style="stroke:#ffbf00;stroke-opacity:1" />
    <circle
       cx="-74.385567"
       cy="3.353848"
       stroke-opacity="1"
       gorn="0.1.0.0.0.4.0.0.0.71.0.0.0"
       stroke-width="1.06299"
       r="1.9665439"
       fill="none"
       stroke="#9a916c"
       id="connector8pin"
       transform="rotate(-90)"
       style="stroke:#ffbf00;stroke-opacity:1" />
    <circle
       cx="-67.635529"
       cy="3.353848"
       stroke-opacity="1"
       gorn="0.1.0.0.0.4.0.0.0.72.0.0.0"
       stroke-width="1.06299"
       r="1.9665439"
       fill="none"
       stroke="#9a916c"
       id="connector7pin"
       transform="rotate(-90)"
       style="stroke:#ffbf00;stroke-opacity:1" />
    <circle
       cx="-60.885513"
       cy="3.353848"
       stroke-opacity="1"
       gorn="0.1.0.0.0.4.0.0.0.73.0.0.0"
       stroke-width="1.06299"
       r="1.9665439"
       fill="none"
       stroke="#9a916c"
       id="connector6pin"
       transform="rotate(-90)"
       style="stroke:#ffbf00;stroke-opacity:1" />
    <circle
       cx="-54.135479"
       cy="3.353848"
       stroke-opacity="1"
       gorn="0.1.0.0.0.4.0.0.0.74.0.0.0"
       stroke-width="1.06299"
       r="1.9665439"
       fill="none"
       stroke="#9a916c"
       id="connector5pin"
       transform="rotate(-90)"
       style="stroke:#ffbf00;stroke-opacity:1" />
    <circle
       cx="-47.385441"
       cy="3.353848"
       stroke-opacity="1"
       gorn="0.1.0.0.0.4.0.0.0.75.0.0.0"
       stroke-width="1.06299"
       r="1.9665439"
       fill="none"
       stroke="#9a916c"
       id="connector4pin"
       transform="rotate(-90)"
       style="stroke:#ffbf00;stroke-opacity:1" />
    <circle
       cx="-40.635418"
       cy="3.353848"
       stroke-opacity="1"
       gorn="0.1.0.0.0.4.0.0.0.76.0.0.0"
       stroke-width="1.06299"
       r="1.9665439"
       fill="none"
       stroke="#9a916c"
       id="connector3pin"
       transform="rotate(-90)"
       style="stroke:#ffbf00;stroke-opacity:1" />
    <circle
       cx="-33.885391"
       cy="3.353848"
       stroke-opacity="1"
       gorn="0.1.0.0.0.4.0.0.0.77.0.0.0"
       stroke-width="1.06299"
       r="1.9665439"
       fill="none"
       stroke="#9a916c"
       id="connector2pin"
       transform="rotate(-90)"
       style="stroke:#ffbf00;stroke-opacity:1" />
    <circle
       cx="-27.135363"
       cy="3.353848"
       stroke-opacity="1"
       gorn="0.1.0.0.0.4.0.0.0.78.0.0.0"
       stroke-width="1.06299"
       r="1.9665439"
       fill="none"
       stroke="#9a916c"
       id="connector1pin"
       transform="rotate(-90)"
       style="stroke:#ffbf00;stroke-opacity:1" />
    <circle
       cx="-20.385332"
       cy="3.353848"
       stroke-opacity="1"
       gorn="0.1.0.0.0.4.0.0.0.79.0.0.0"
       stroke-width="1.06299"
       r="1.9665439"
       fill="none"
       stroke="#9a916c"
       id="connector0pin"
       transform="rotate(-90)"
       style="stroke:#ffbf00;stroke-opacity:1" />
  </g>
</svg>
